<svg xmlns:xlink="http://www.w3.org/1999/xlink" xmlns="http://www.w3.org/2000/svg" width="300" height="115" viewBox="0 0 300 115" fill="none">
<path d="M163.135 37.0629H156.264C152.589 37.0629 149.073 38.8182 147.635 42.3287L128.938 85.4125L127.34 45.3605C126.701 39.1373 122.866 37.0629 117.912 37.0629H108.005C104.329 37.0629 100.814 38.9777 99.3756 42.3287L80.8389 85.4125H80.5193L79.2409 45.3605C78.7615 40.4139 74.7666 37.0629 69.8128 37.0629H60.5445L57.8279 37.382C61.5032 42.6478 62.9414 48.5519 61.8228 54.7751L55.7505 86.2104L58.6269 105.678C59.4259 110.305 63.261 113.656 68.055 113.656H82.5967C86.2721 113.656 89.7876 111.422 91.2258 107.912L108.324 67.7003L110.402 105.199C110.881 109.986 114.876 113.656 119.83 113.656H134.212C137.887 113.656 141.083 111.742 142.681 108.391L171.605 50.3072C174.641 43.9244 170.166 37.0629 163.135 37.0629ZM202.446 36.9033H191.899C187.265 36.9033 183.43 40.0947 182.631 44.5627L171.764 102.646C170.646 108.391 175.12 113.656 181.033 113.656H191.42C196.054 113.656 199.889 110.465 200.688 105.997L211.714 47.9136C212.833 42.1691 208.358 36.9033 202.446 36.9033ZM292.572 42.3287C288.258 38.8182 282.345 37.0629 274.995 37.0629C264.608 37.0629 255.339 41.6904 247.03 50.9455L247.19 50.1476C248.308 44.4031 243.834 38.9777 237.921 38.9777H229.931C225.457 38.9777 221.462 42.3287 220.663 46.7966L210.915 102.646C209.797 108.391 214.271 113.656 220.184 113.656H230.89C235.364 113.656 239.359 110.465 240.158 105.997L245.432 75.5192C246.71 69.296 248.468 65.3067 250.386 63.5515C252.782 61.4771 255.819 60.3601 259.494 60.3601C265.087 60.3601 267.963 63.2323 267.963 69.1364L267.804 71.6895L267.644 74.0831L262.69 102.646C261.571 108.391 266.046 113.656 271.958 113.656H282.345C286.82 113.656 290.815 110.465 291.614 105.997L298.325 68.8173C298.964 65.6259 299.124 62.5941 299.124 59.7218C299.124 51.5837 296.887 45.8392 292.572 42.3287Z" fill="white"/>
<path d="M50.9564 45.2003C50.1225 43.498 48.9594 41.9774 47.5343 40.726C46.1091 39.4746 44.4501 38.5172 42.6527 37.909C40.8553 37.3009 38.9551 37.054 37.0617 37.1825C35.1683 37.311 33.3191 37.8125 31.6207 38.658L7.81067 49.1896C6.3989 49.8113 5.12468 50.7065 4.06178 51.8234C2.99889 52.9403 2.16845 54.2566 1.61854 55.6962C1.06864 57.1358 0.810194 58.67 0.858183 60.21C0.906171 61.75 1.25964 63.2652 1.89811 64.6679C4.61469 70.5719 11.486 73.2846 17.3986 70.5719L20.5946 69.1358L15.3212 97.0605C14.6855 100.785 15.5574 104.609 17.745 107.691C19.9327 110.773 23.257 112.861 26.9865 113.496C30.7161 114.131 34.5454 113.26 37.6321 111.076C40.7188 108.891 42.8101 105.572 43.4458 101.848L52.0749 54.7745L52.2347 53.6575C52.7141 50.6257 52.2347 47.7535 50.9564 45.2003Z" fill="#288FF2"/>
<g clip-path="url(#clip0_1431_2)">
<path d="M186 15C186 7.26806 192.268 1 200 1C207.732 1 214 7.26806 214 15L200 16.2174L186 15Z" fill="#FFDA44"/>
<path d="M187.873 22C190.294 26.1844 194.818 29 200 29C205.182 29 209.706 26.1844 212.127 22L200 21.0869L187.873 22Z" fill="#D80027"/>
<path d="M212.127 22C213.318 19.9408 214 17.5501 214 15H186C186 17.5501 186.682 19.9408 187.873 22H212.127Z" fill="#0052B4"/>
<path d="M200 19.8694C202.689 19.8694 204.869 17.6893 204.869 14.9999C204.869 12.3105 202.689 10.1304 200 10.1304C197.311 10.1304 195.13 12.3105 195.13 14.9999C195.13 17.6893 197.311 19.8694 200 19.8694Z" fill="#FFDA44"/>
<path d="M200 18.0434C198.322 18.0434 196.957 16.6781 196.957 14.9999V13.1738C196.957 11.4956 198.322 10.1304 200 10.1304C201.678 10.1304 203.043 11.4957 203.043 13.1738V14.9999C203.043 16.6781 201.678 18.0434 200 18.0434Z" fill="#338AF3"/>
<path d="M204.87 7.69543H201.217C201.217 7.0231 200.672 6.47803 200 6.47803C199.328 6.47803 198.783 7.0231 198.783 7.69543H195.13C195.13 8.36781 195.716 8.91282 196.388 8.91282H196.348C196.348 9.58521 196.893 10.1302 197.565 10.1302C197.565 10.8026 198.11 11.3476 198.783 11.3476H201.217C201.89 11.3476 202.435 10.8026 202.435 10.1302C203.107 10.1302 203.652 9.58521 203.652 8.91282H203.612C204.284 8.91282 204.87 8.36775 204.87 7.69543Z" fill="black"/>
</g>
<defs>
<clipPath id="clip0_1431_2">
<rect width="28" height="28" fill="white" transform="translate(186 1)"/>
</clipPath>
</defs>
</svg>