<svg xmlns="http://www.w3.org/2000/svg" xmlns:xlink="http://www.w3.org/1999/xlink" width="138" height="30" viewBox="0 0 138 30" version="1.1">
    <title>bet365 Logo</title>
    <g id="bet365-Logo" stroke="none" stroke-width="1" fill="none" fill-rule="evenodd">
        <g id="Logos/Bet365/Standard" transform="translate(0.000000, 0.185185)">
            <g id="Logo" transform="translate(0.000000, 0.000000)">
                <path d="M47.948876,21.1113345 L34.9075492,21.1113345 C35.1368102,23.3177701 36.8204541,24.3634808 39.9947092,24.3634808 C42.2118205,24.3634808 44.5074724,23.9376774 46.723754,23.0852352 L46.723754,28.2355344 C44.5453599,29.1247366 41.5624782,29.6296296 38.0818043,29.6296296 C30.0510329,29.6296296 25.7288136,25.757576 25.7288136,18.9436083 C25.7288136,12.2833642 29.9738751,8.2962963 37.0499916,8.2962963 C44.8907724,8.2962963 47.9491525,11.9739675 47.9491525,19.7954935 L47.9491525,21.1113345 L47.948876,21.1113345 Z M39.7627119,17.7777778 L39.7627119,17.0843467 C39.7627119,14.5155849 38.9640795,13.037037 37.4413013,13.037037 C35.8810176,13.037037 35.0847458,14.5155849 35.0847458,17.1269038 L35.0847458,17.7774649 L39.7627119,17.7774649 L39.7627119,17.7777778 Z" id="Shape" fill="#FFFFFF"/>
                <path d="M62.1760323,8.70595044 L66.6610169,8.70595044 L66.6610169,14.6682504 L62.1760323,14.6682504 L62.1760323,19.5381392 C62.1760323,22.0323564 62.5716073,23.2015557 64.4971562,23.2015557 C65.0093277,23.2015557 65.7148789,23.1233662 66.5412922,22.9271918 L66.5412922,28.7720673 C64.4584803,29.3964624 62.3748152,29.6296296 60.1719941,29.6296296 C57.4578546,29.6296296 55.3724832,28.7720673 54.1541918,27.29011 C52.5807075,25.3418182 52.5411785,22.8887977 52.5411785,19.616609 L52.5411785,14.6679701 L49.1186441,14.6679701 L49.1186441,8.70595044 L52.5408941,8.70595044 L52.5408941,4.18665321 L62.1760323,1.18518519 L62.1760323,8.70595044 L62.1760323,8.70595044 Z" id="Shape" fill="#FFFFFF"/>
                <path d="M76.1863641,23.5139869 C78.8184678,23.5139869 80.1939194,22.655587 80.1939194,20.8620287 C80.1939194,19.1081149 78.7771587,18.1349992 76.0282498,18.1349992 C75.0091963,18.1349992 73.7901497,18.2137257 72.4548677,18.4091361 L72.4548677,12.485811 C73.5539754,12.6024949 74.5755929,12.6401712 75.5977802,12.6401712 C78.4253189,12.6401712 79.8378062,11.8231026 79.8378062,9.95391073 C79.8378062,8.12098927 78.5452578,7.26287049 75.8724147,7.26287049 C74.1428442,7.26287049 71.9434891,7.73044962 69.2338951,8.54920516 L69.2338951,2.39279336 C71.6292549,1.57235083 74.5371327,1.18518519 77.9535401,1.18518519 C85.377218,1.18518519 89.6576985,4.34043058 89.6576985,9.29120236 C89.6576985,12.330045 87.6552028,14.549851 84.1587412,15.2918482 C88.0466425,16.0695535 90.0508475,18.2142881 90.0508475,21.4859362 C90.0508475,26.6318372 85.6911674,29.6296296 77.365526,29.6296296 C74.5755929,29.6296296 71.8275387,29.242464 69,28.5797556 L69,22.2276522 C71.787654,23.0458454 74.1428442,23.5139869 76.1863641,23.5139869 L76.1863641,23.5139869 Z" id="Shape" fill="#FFDF1B"/>
                <path d="M106.202128,11.3292348 C111.95677,11.3292348 115.779661,14.8797929 115.779661,20.1083565 C115.779661,25.7277039 111.417045,29.6296296 104.542619,29.6296296 C96.4341359,29.6296296 91.220339,24.5181886 91.220339,16.1304138 C91.220339,6.56775362 96.7441908,1.18518519 106.704602,1.18518519 C108.829332,1.18518519 111.10895,1.41830406 113.462231,1.92452114 L113.462231,8.13032579 C111.300249,7.46813304 109.215571,7.15421089 107.013816,7.15421089 C102.611988,7.15421089 100.565121,8.94849421 100.449726,13.008648 C102.072823,11.7577456 103.849687,11.3292348 106.202128,11.3292348 L106.202128,11.3292348 Z M106.423729,20.1697266 C106.423729,17.9869121 105.226784,16.5925926 103.483138,16.5925926 C101.739229,16.5925926 100.576271,17.9470124 100.576271,20.1697266 C100.576271,22.3492839 101.739229,23.7037037 103.483138,23.7037037 C105.262616,23.7034323 106.423729,22.3492839 106.423729,20.1697266 L106.423729,20.1697266 Z" id="Shape" fill="#FFDF1B"/>
                <path d="M118.570698,2.37037037 L136.909335,2.37037037 L136.909335,8.7258456 L127.156717,8.7258456 L127.156717,12.7467072 C127.947743,12.7077555 128.475457,12.6690801 128.661196,12.6690801 C134.725273,12.6690801 138,15.7711244 138,21.0155103 C138,26.4148741 134.009361,29.6296296 126.213822,29.6296296 C123.503684,29.6296296 120.827963,29.2119352 118.118644,28.5221316 L118.118644,22.4713633 C120.188805,23.0470745 121.99702,23.3147636 123.540559,23.3147636 C126.703843,23.3147636 128.360464,22.2409684 128.360464,20.2500134 C128.360464,18.0300448 126.628729,16.9192317 123.088505,16.9192317 C121.580475,16.9192317 120.114783,17.1866445 118.570698,17.5703599 L118.570698,2.37037037 L118.570698,2.37037037 Z" id="Shape" fill="#FFDF1B"/>
                <path d="M0,0 L9.31044863,0 L9.31044863,11.3107359 C10.6355476,9.47079541 12.4524274,8.60994197 14.9121527,8.60994197 C20.3247523,8.60994197 23.3898305,12.4446528 23.3898305,19.2557545 C23.3898305,25.7541001 20.2864389,29.6296296 15.1392969,29.6296296 C11.9978654,29.6296296 9.8774881,28.4546125 8.66732955,25.9508746 L8.66732955,29.3548772 L0,29.3548772 L0,0 L0,0 Z M9.3559322,18.3689182 C9.3559322,21.1605779 10.0027241,22.5185185 11.676078,22.5185185 C13.3117574,22.5185185 14.0338983,21.1605779 14.0338983,18.3689182 C14.0338983,15.5801628 13.3494319,14.2222222 11.676078,14.2222222 C10.0027241,14.2222222 9.3559322,15.5798988 9.3559322,18.3689182 L9.3559322,18.3689182 Z" id="Shape" fill="#FFFFFF"/>
            </g>
        </g>
    </g>
</svg>