<svg xmlns:xlink="http://www.w3.org/1999/xlink" xmlns="http://www.w3.org/2000/svg" id="Layer_1" version="1.1" viewBox="0 0 1105.3 252.5" width="1105.3"  height="252.5" >
  <!-- Generator: Adobe Illustrator 29.1.0, SVG Export Plug-In . SVG Version: 2.1.0 Build 142)  -->
  <defs>
    <style>
      .st0 {
        fill: #173358;
      }

      .st1 {
        fill: #da202c;
      }
    </style>
  </defs>
  <path class="st0" d="M1016.7,69.2c-54.3,0-84.4,16.8-90.3,50.5-2.1,11.9.2,21.9,6.9,29.9,6.7,8,15.5,13.7,26.4,17.3,10.8,3.6,21.9,6.6,33.2,9,11.3,2.4,20.7,5.2,28.2,8.3,7.6,3.1,10.9,7,10.1,11.7-1.7,10-14.6,15-38.5,15-15.1.1-24.8-3.3-29.4-10.4-3.5-5.6-8.9-8.4-16.5-8.4h-23.2c-2.8,0-5.3,1-7.4,2.8-2.2,1.8-3.5,4.1-4,6.9-5.2,29.7,20.8,44.5,78.1,44.4,57.4,0,89.1-16.8,95-50.5,2.1-12.1-.2-22.2-6.9-30.1-6.7-7.9-15.5-13.7-26.4-17.3-10.9-3.6-22-6.6-33.3-8.9-11.3-2.3-20.7-5-28.2-8.1-7.5-3.1-10.9-7-10.1-11.6,1.6-10,12.9-15,33.6-15,15.1,0,24.8,3.5,29.3,10.5,3.5,5.5,9,8.2,16.6,8.2h23.3c2.8,0,5.3-.9,7.3-2.7,2.1-1.8,3.4-4.1,3.9-6.9,5.2-29.8-20.8-44.6-77.9-44.5M916.2,84c-1.5-1.8-3.6-2.7-6.4-2.7h-35c-2.7,0-5.1.9-7.3,2.7-2.1,1.8-3.4,4-3.9,6.8l-25.2,146.1c-.5,2.8,0,5.1,1.4,6.8,1.5,1.8,3.6,2.6,6.4,2.6h35c2.7,0,5.1-1,7.2-2.7,2.2-1.8,3.5-4,4-6.8l25.2-146.1c.4-2.7,0-4.9-1.5-6.7M843.1,111.3c2.8,0,5.3-.9,7.4-2.6,2.1-1.7,3.4-4,3.9-6.8l4.6-23c.5-2.7,0-4.9-1.6-6.7-1.5-1.8-3.7-2.7-6.5-2.7-15.9,0-34.7-.8-45.2,2.8-10.5,3.7-16.2,9.2-28.2,16.9l1.7-9.7c.5-2.8,0-5-1.5-6.8-1.4-1.8-3.6-2.7-6.4-2.7h-35c-2.7,0-5.1,1-7.3,2.8-2.1,1.8-3.5,4.1-4,6.9l-27.7,157.3c-.5,2.8,0,5.1,1.5,6.9,1.5,1.8,3.6,2.6,6.4,2.6h35c2.7,0,5.1-1,7.3-2.7,2.1-1.8,3.4-4.1,3.9-6.9l18.1-103.4c15.5-15.5,30.3-23.2,44.4-23.2,2.8,0,6.9.1,12.3.4,5.4.3,9.2.4,11.6.4h5ZM688.3,183h-23.6c-7.2,0-13.9,3.9-20.2,11.5-8,9.7-20.2,14.6-36.6,14.6-15.8,0-26.2-4-31.3-11.9-5.1-8-6.1-20.9-2.9-38.7,3.1-18.1,8.6-31,16.2-39,7.7-7.9,19.1-11.9,34.2-12,16.5,0,27,4.8,31.5,14.6,3.6,7.6,9,11.3,16.3,11.3h23.6c2.8,0,5.4-.9,7.5-2.7,2.1-1.8,3.5-4.1,4-6.9,3.1-17.8-2.3-31.3-16.2-40.5-13.9-9.1-34.9-13.6-62.8-13.6-29.6,0-53.8,7.6-72.6,22.5-18.8,15-30.7,37-35.8,66.2-5.1,29-.8,51,12.8,65.9,13.7,15,35.8,22.4,66.3,22.3,28,0,50.5-4.7,67.6-13.9,17.1-9.2,27.2-22.7,30.4-40.7.5-2.7,0-4.9-1.6-6.7-1.6-1.8-3.7-2.7-6.6-2.7M523.2,91.6c.5-2.8,0-5.1-1.5-6.9-1.4-1.8-3.6-2.7-6.4-2.7h-56.5c0,.1,14.7-9.7,14.7-9.7l7.4-47c.5-2.8,0-5.1-1.4-6.9-1.5-1.8-3.6-2.7-6.4-2.7h-35.1c-2.7,0-5.1,1-7.3,2.8-2.1,1.8-3.5,4.1-4,6.9l-25.9,151.6c-8.2,46.9,10.1,70.2,55,70,17.1,0,31.2-1.1,42.1-3.1,2.9-.4,5.4-1.4,7.5-3.2,2.1-1.7,3.4-3.7,3.8-6.1l2.8-16.2c.5-2.7,0-5-1.6-6.7-1.5-1.7-3.7-2.6-6.5-2.6h-5.8c-2.1,0-5.5.3-10.3,1-4.8.6-8.6.9-11.4.9-8.3,0-14.5-2.9-18.5-8.7-4-5.8-5-14.1-3.1-24.8l10.1-57.9h43.6c2.7,0,5.1-1,7.3-2.8,2.1-1.8,3.5-4.1,4-6.9l3.3-18.6ZM339.2,142.6h-72.7c5.6-24.4,19.9-36.7,43-36.7,23.1,0,33,12.2,29.8,36.7M315.6,70.5c-28.6,0-52.3,7.8-71.1,23.1-18.9,15.3-30.8,37.4-35.8,66.1-5,28.7-.9,50.6,12.6,65.5,13.4,14.9,34.6,22.3,63.3,22.3,57,0,88.1-14.7,93.3-44.1.5-3,0-5.4-1.4-7.4-1.5-1.9-3.7-2.9-6.5-2.9h-23.3c-7.5.2-14,3-19.4,8.5-7,6.9-17.8,10.5-32.5,10.5-13,0-22.2-2.7-27.6-8.1-5.4-5.4-7.5-14.1-6.5-26l117.8-.2c2.8,0,5.3-.9,7.4-2.8,2.2-1.9,3.5-4.3,4-7.1l1.6-9.1c5-28.5.8-50.4-12.6-65.6-13.4-15.3-34.5-22.8-63.3-22.8M150,159.3c-3.1,17.9-8.4,30.7-15.9,38.8-7.5,8-18.6,12-33.3,12-13,0-23.8-1.2-32.4-3.5l15-83.3-26.7,1.2c23.3-14,53.7-16.1,62.9-16,14.3,0,23.7,4,28.3,12,4.6,8,5.3,20.9,2.2,38.8M137.3,70.8c-13.3,0-28.8,2.7-46.6,8l8.6-52.7c.5-2.8,0-5.1-1.5-6.9-1.4-1.8-3.6-2.7-6.4-2.7h-35c-2.7,0-5.1,1-7.3,2.8-2.1,1.8-3.5,4.1-4,6.9L10.1,230.5c7.5,4.9,19,9,34.6,12.4,15.6,3.3,31,5,46.1,5,65.2-.1,102.9-29.6,113.3-88.6,5-28.6,1.4-50.5-10.7-65.7-12.2-15.2-30.9-22.7-56-22.7"/>
  <path class="st1" d="M926,17.3c-.7-1,0,0-.8-.9-6-7.2-15-11.7-25.1-11.7-17.5,0-31.6,13.8-32.5,31.1,12.5-8.5,39.6-17.6,58.3-18.4"/>
  <path class="st1" d="M868,41.9c2.3,15.9,15.9,28.1,32.3,28,18,0,32.6-14.7,32.6-32.7,0-1.9-.2-3.7-.5-5.5-12.7-4.7-39.3-3.2-64.4,10.2"/>
</svg>