<svg xmlns:xlink="http://www.w3.org/1999/xlink" xmlns="http://www.w3.org/2000/svg" width="208" height="85" viewBox="0 0 208 85" fill="none">
<g id="Logo">
<path id="Union" fill-rule="evenodd" clip-rule="evenodd" d="M99.1266 30.0357V56.1238H94.5563V42.2022L85.1559 53.2454L75.8397 42.2724V56.1238H71.2693V30.0357L85.1559 46.7374L99.1266 30.0357ZM115.429 56.5447C113.713 56.5434 112.016 56.1972 110.437 55.5267C108.911 54.8913 107.524 53.9608 106.358 52.7887C105.192 51.616 104.26 50.2317 103.613 48.7098C102.302 45.5209 102.302 41.9437 103.613 38.7548C104.259 37.2342 105.191 35.8518 106.358 34.6829C107.522 33.5064 108.909 32.5733 110.437 31.9379C112.015 31.2663 113.713 30.9201 115.429 30.9201C117.144 30.9201 118.842 31.2663 120.42 31.9379C121.947 32.5751 123.334 33.508 124.499 34.6829C125.673 35.8447 126.604 37.229 127.237 38.7548C127.893 40.3033 128.237 41.9661 128.249 43.6479C128.262 45.3296 127.942 46.9973 127.309 48.5553C126.676 50.1133 125.741 51.531 124.559 52.7273C123.377 53.9236 121.97 54.8749 120.42 55.5267C118.841 56.1965 117.144 56.5427 115.429 56.5447ZM115.429 35.1392C113.428 35.1329 111.487 35.821 109.937 37.0861C108.387 38.3512 107.324 40.115 106.929 42.0765C106.534 44.0381 106.832 46.0758 107.772 47.842C108.712 49.6082 110.236 50.9935 112.084 51.7615C113.931 52.5296 115.988 52.6327 117.903 52.0535C119.818 51.4742 121.473 50.2483 122.585 48.5851C123.698 46.9218 124.198 44.9242 124.002 42.933C123.805 40.9419 122.924 39.0805 121.508 37.6666C120.715 36.8597 119.769 36.2198 118.725 35.7845C117.681 35.3492 116.56 35.1274 115.429 35.1322V35.1392ZM154.465 56.9916V30.9737H149.887V46.6154L131.957 30.0611V55.9456H136.534V40.5005L154.465 56.9916ZM167.974 45.9098H163.825V56.4405H159.255V31.4265H170.93C172.174 31.4646 173.396 31.7636 174.517 32.3041C175.709 32.8723 176.708 33.778 177.389 34.9088C178.07 36.0396 178.405 37.3456 178.351 38.6647C178.358 39.6998 178.167 40.7268 177.789 41.6905C177.466 42.5123 176.974 43.2564 176.343 43.8739C175.38 44.7825 174.188 45.4133 172.896 45.6992L180 56.4195H174.939L167.974 45.9098ZM163.825 42.0415H170.965C171.938 42.0354 172.88 41.7015 173.64 41.0938C173.939 40.7681 174.168 40.3845 174.313 39.9666C174.458 39.5488 174.516 39.1056 174.482 38.6647C174.536 38.0726 174.406 37.4784 174.109 36.9632C173.813 36.448 173.365 36.0369 172.825 35.7863C172.221 35.4949 171.565 35.3278 170.895 35.2948H163.825V42.0415ZM190.193 55.5267C191.771 56.1972 193.469 56.5434 195.184 56.5447C196.899 56.5441 198.596 56.2004 200.176 55.5337C201.7 54.8947 203.086 53.9647 204.255 52.7957C206.054 50.9919 207.275 48.6931 207.763 46.1924C208.25 43.6917 207.982 41.1024 206.993 38.7548C206.36 37.229 205.429 35.8447 204.255 34.6829C203.088 33.5097 201.702 32.577 200.176 31.9379C198.597 31.2663 196.899 30.9201 195.184 30.9201C193.469 30.9201 191.771 31.2663 190.193 31.9379C188.664 32.5733 187.278 33.5064 186.114 34.6829C184.946 35.8518 184.014 37.2342 183.369 38.7548C182.058 41.9437 182.058 45.5209 183.369 48.7098C184.016 50.2317 184.948 51.616 186.114 52.7887C187.28 53.9608 188.666 54.8913 190.193 55.5267ZM189.692 37.0861C191.242 35.821 193.183 35.1329 195.184 35.1392V35.1322C196.315 35.1274 197.436 35.3492 198.48 35.7845C199.524 36.2198 200.471 36.8597 201.264 37.6666C202.68 39.0805 203.561 40.9419 203.757 42.933C203.954 44.9242 203.453 46.9218 202.341 48.5851C201.229 50.2483 199.574 51.4742 197.659 52.0535C195.744 52.6327 193.687 52.5296 191.839 51.7615C189.992 50.9935 188.468 49.6082 187.528 47.842C186.588 46.0758 186.29 44.0381 186.684 42.0765C187.079 40.115 188.142 38.3512 189.692 37.0861Z" fill="white"/>
<path id="Vector" d="M41.9878 54.1441L24.497 36.9897L7.00615 54.1441L24.497 71.2986L41.9878 54.1441Z" fill="#FD9C8D"/>
<path id="Vector_2" d="M41.9108 54.1962L24.4413 37.0626L48.7022 12.8399L48.593 37.0412C48.4838 43.7607 47.1245 48.1833 42.435 53.7304L41.9108 54.1962Z" fill="#F965B8"/>
<path id="Vector_3" d="M6.96619 54.1756L24.4357 37.042L0.174927 12.8247L0.284085 37.0259C0.39327 43.7401 1.75264 48.1681 6.44212 53.7098L6.96619 54.1756Z" fill="#FF9D52"/>
<path id="Vector_4" d="M14.3196 46.9646L24.3154 71.1284L24.4683 71.2783L34.5788 46.8843L24.4956 36.9897L14.3196 46.9646Z" fill="#FE4C7C"/>
<path id="Vector_5" d="M48.6804 12.8192L24.425 37.0418L34.5464 46.9686L48.6804 12.862V12.8192Z" fill="#E9388B"/>
<path id="Vector_6" d="M0 12.75L24.2554 36.9727L14.1339 46.8995L0 12.7929V12.75Z" fill="#FFBA5B"/>
</g>
</svg>