<svg viewBox="0 0 139 44" xmlns:xlink="http://www.w3.org/1999/xlink" xmlns="http://www.w3.org/2000/svg" width="139" height="44" fill="none"><path fill="#E92139" d="M92.698 42.727V.495h10.548c6.628 0 9.942 3.48 9.942 10.438V32.29c0 6.958-3.314 10.438-9.942 10.438H92.699Zm10.427-36.2h-3.758v30.167h3.758c2.263 0 3.395-1.367 3.395-4.102V10.63c0-2.735-1.132-4.102-3.395-4.102ZM88.691 42.644h-6.744c-.401-1.204-.602-2.93-.602-5.178v-6.624c0-1.927-.341-3.292-1.023-4.094-.683-.843-1.787-1.265-3.312-1.265h-2.288v17.16h-6.624V.495h9.996c3.412 0 5.9.803 7.466 2.409 1.566 1.566 2.348 3.994 2.348 7.286V13.5c0 4.335-1.445 7.185-4.335 8.55 2.93 1.244 4.396 4.235 4.396 8.972v6.503c0 2.288.24 3.994.722 5.118ZM77.913 6.516h-3.191v12.946h2.589c1.324 0 2.308-.341 2.95-1.024.683-.682 1.024-1.826 1.024-3.432V10.85c0-2.89-1.124-4.335-3.372-4.335ZM21.618 6.516V.494H42.09v6.022h-6.924v36.128h-6.624V6.516h-6.924ZM131.465.494l6.744 42.15h-6.684l-1.144-7.647h-8.129l-1.144 7.647h-6.082L121.77.494h9.695Zm-5.179 7.467-3.191 21.316h6.383L126.286 7.96ZM58.47.494l6.744 42.15H58.53l-1.144-7.647h-8.129l-1.144 7.647h-6.081L48.775.494h9.695ZM53.29 7.961l-3.19 21.316h6.382L53.29 7.96Z"/><path fill="url(#a)" d="M.18 10.598c0-3.413.824-6.022 2.47-7.828C4.294.923 6.723 0 9.934 0c3.212 0 5.64.923 7.286 2.77 1.646 1.806 2.469 4.415 2.469 7.828v1.324h-6.262v-1.746c0-2.77-1.104-4.155-3.312-4.155-2.208 0-3.312 1.385-3.312 4.155 0 1.164.241 2.268.723 3.312a11.168 11.168 0 0 0 1.866 2.83 37.57 37.57 0 0 0 2.53 2.529 40.842 40.842 0 0 1 2.709 2.589 21.743 21.743 0 0 1 2.529 2.89c.762 1.004 1.385 2.208 1.866 3.613.482 1.405.723 2.93.723 4.576 0 3.412-.843 6.042-2.529 7.888-1.686 1.807-4.135 2.71-7.346 2.71-3.211 0-5.66-.903-7.346-2.71C.843 38.557 0 35.927 0 32.515v-2.589h6.262v3.01c0 2.73 1.144 4.095 3.432 4.095 2.288 0 3.432-1.365 3.432-4.094 0-1.566-.441-3.031-1.324-4.396a17.153 17.153 0 0 0-3.252-3.793 277.918 277.918 0 0 1-3.793-3.493c-1.285-1.244-2.369-2.77-3.252-4.576C.622 14.833.181 12.805.181 10.598Z"/><mask id="c" width="20" height="44" x="0" y="0" maskUnits="userSpaceOnUse" style="mask-type:alpha"><path fill="url(#b)" d="M.18 10.598c0-3.413.824-6.022 2.47-7.828C4.294.923 6.723 0 9.934 0c3.212 0 5.64.923 7.286 2.77 1.646 1.806 2.469 4.415 2.469 7.828v1.324h-6.262v-1.746c0-2.77-1.104-4.155-3.312-4.155-2.208 0-3.312 1.385-3.312 4.155 0 1.164.241 2.268.723 3.312a11.168 11.168 0 0 0 1.866 2.83 37.57 37.57 0 0 0 2.53 2.529 40.842 40.842 0 0 1 2.709 2.589 21.743 21.743 0 0 1 2.529 2.89c.762 1.004 1.385 2.208 1.866 3.613.482 1.405.723 2.93.723 4.576 0 3.412-.843 6.042-2.529 7.888-1.686 1.807-4.135 2.71-7.346 2.71-3.211 0-5.66-.903-7.346-2.71C.843 38.557 0 35.927 0 32.515v-2.589h6.262v3.01c0 2.73 1.144 4.095 3.432 4.095 2.288 0 3.432-1.365 3.432-4.094 0-1.566-.441-3.031-1.324-4.396a17.153 17.153 0 0 0-3.252-3.793 277.918 277.918 0 0 1-3.793-3.493c-1.285-1.244-2.369-2.77-3.252-4.576C.622 14.833.181 12.805.181 10.598Z"/></mask><g mask="url(#c)"><path fill="url(#d)" d="M-4.808 23.835h29.48v24.044h-29.48z"/><path fill="url(#e)" d="M7.84 14.112C3.763 7.422 4.181 2.51 6.272.522L5.54-.523l-7.213 4.495.732 20.176 13.172 5.122c4.809 7.213 3.275 12.126 1.882 13.172l.418.94 6.69-4.704V25.193l-13.38-11.08Z"/></g><defs><linearGradient id="a" x1="18.845" x2="2.913" y1="8.14" y2="10.039" gradientUnits="userSpaceOnUse"><stop stop-color="#78111D"/><stop offset="1" stop-color="#E92139"/></linearGradient><linearGradient id="b" x1="18.845" x2="2.913" y1="8.14" y2="10.039" gradientUnits="userSpaceOnUse"><stop stop-color="#78111D"/><stop offset="1" stop-color="#E92139"/></linearGradient><linearGradient id="d" x1="20.186" x2="-2.529" y1="36.271" y2="45.62" gradientUnits="userSpaceOnUse"><stop stop-color="#78111D"/><stop offset="1" stop-color="#F01A34"/></linearGradient><linearGradient id="e" x1="15.172" x2="-3.838" y1="32.971" y2="21.93" gradientUnits="userSpaceOnUse"><stop stop-color="#F01A34"/><stop offset="1" stop-color="#77111D"/></linearGradient></defs></svg>