<svg xmlns:xlink="http://www.w3.org/1999/xlink" xmlns="http://www.w3.org/2000/svg" width="106" height="44" viewBox="0 0 106 44" fill="none">
  <g clip-path="url(#header_main_logo)">
    <path d="M50.9539 21.0277H54.5567L60.2931 28.4371V21.0277H64.1174V35.0371H60.7306L54.7754 27.348V35.0371H50.9539V21.0277Z" fill="#F5333F"/>
    <path d="M66.0388 21.0276H72.0156C75.5402 21.0276 77.8088 22.8501 77.8088 25.9545V25.9925C77.8088 29.298 75.2809 31.0417 71.8158 31.0417H69.9036V35.037H66.0388V21.0276ZM71.7348 27.997C73.1095 27.997 73.9467 27.2745 73.9467 26.1745V26.1338C73.9467 24.9333 73.1095 24.2923 71.7159 24.2923H69.9036V27.997H71.7348Z" fill="white"/>
    <path d="M78.7886 28.076V28.038C78.7886 24.0101 81.8162 20.7454 85.8511 20.7454C89.8861 20.7454 92.8731 23.972 92.8731 27.9972V28.038C92.8731 32.0631 89.8456 35.3278 85.8106 35.3278C81.7756 35.3278 78.7886 32.1039 78.7886 28.076ZM89.1758 28.076V28.038C89.1758 26.0145 87.8119 24.2518 85.8133 24.2518C83.8147 24.2518 82.5076 25.9738 82.5076 27.9972V28.038C82.5076 30.0587 83.8714 31.8214 85.8511 31.8214C87.8308 31.8214 89.1758 30.0994 89.1758 28.076Z" fill="white"/>
    <path d="M92.7626 21.0277V24.4309H96.7679V35.0452H100.633V24.4309H105.094V21.0277H92.7626Z" fill="white"/>
    <path d="M102.357 33.5348H102.8L103.159 34.1215L103.518 33.5348H103.961V35.0503H103.545V34.1812L103.167 34.7652L102.783 34.1758V35.0422H102.357V33.5348Z" fill="white"/>
    <path d="M104.248 33.5352H104.961C105.049 33.5276 105.138 33.5383 105.222 33.5668C105.306 33.5953 105.384 33.641 105.449 33.7009C105.495 33.747 105.531 33.8023 105.554 33.8631C105.577 33.9239 105.588 33.9889 105.584 34.054C105.588 34.1547 105.559 34.2539 105.504 34.3376C105.448 34.4214 105.368 34.4855 105.274 34.5212L105.633 35.0481H105.152L104.847 34.5891H104.664V35.0481H104.248V33.5352ZM104.939 34.2631C105.082 34.2631 105.163 34.1952 105.163 34.0839C105.163 33.9644 105.079 33.9046 104.939 33.9046H104.669V34.2686L104.939 34.2631Z" fill="white"/>
    <path d="M46.887 21.0277C46.2982 22.1467 45.7184 23.2694 45.1477 24.3956V35.0371H49.0314V21.0277H46.887Z" fill="#F5333F"/>
    <path d="M60.0928 0.0653611C59.8498 -0.518589 57.8512 0.60857 57.5514 0.760669C56.2043 1.48639 54.9485 2.3718 53.8109 3.39795C51.4739 5.50231 49.3498 7.83408 47.4695 10.3592C43.6884 15.2861 40.542 20.6476 37.7197 26.1693C36.6097 28.3421 35.5834 30.515 34.6165 32.7584C34.314 33.4537 34.0764 34.2631 33.6577 34.9041C33.3877 35.3387 33.4093 34.6162 33.4471 34.3609C33.8873 31.2266 34.4761 28.114 35.0675 24.996C35.5051 22.7118 37.0013 16.0737 37.2849 15.0389C37.4253 14.5337 37.6684 13.9797 37.6036 13.4473C37.5491 13.1197 37.4102 12.8122 37.2008 12.5553C36.9913 12.2984 36.7186 12.1013 36.4098 11.9834C34.9649 11.4402 33.9926 12.8417 33.1689 13.795C32.1291 15.0036 31.1622 16.272 30.2386 17.573C28.375 20.2049 26.6601 22.9481 25.0639 25.751C24.3995 26.9135 23.8107 28.114 23.1734 29.2819C22.9033 29.7925 22.8142 29.3797 22.9249 29.0103C23.1139 28.3666 23.2679 27.7093 23.4407 27.0574C24.2942 23.877 25.28 20.7345 26.1253 17.5513C26.8248 14.914 27.5648 12.1599 27.7053 9.41943C27.7593 8.33301 27.7053 7.214 27.2488 6.21993C27.0082 5.70506 26.6615 5.24751 26.2318 4.87759C25.802 4.50768 25.299 4.23384 24.756 4.07425C22.3253 3.30017 19.6246 4.34585 17.4774 5.46486C14.8253 6.86091 12.4756 8.76758 10.315 10.8372C8.06635 12.957 6.01596 15.2799 4.18967 17.7767C2.46928 20.1668 0.759698 22.8449 0.243851 25.7972C-0.00191841 27.2041 -0.00191875 28.8039 0.724588 30.0777C0.859626 30.3113 1.38357 31.2157 1.78599 31.031C1.99935 30.9305 1.88052 30.629 1.8022 30.4742C1.62317 30.1801 1.48419 29.8631 1.38898 29.5318C1.07299 28.0488 1.64285 26.4925 2.30454 25.1861C2.98755 23.8881 3.82657 22.6795 4.80275 21.5873C6.84384 19.2878 9.07056 17.1621 11.4601 15.2318C13.7293 13.2957 16.207 11.6212 18.8467 10.2397C19.5408 9.88931 20.2889 9.45746 21.0803 9.40042C22.3739 9.30536 22.0363 10.6742 21.8581 11.5081C21.1667 14.7212 20.1917 17.8745 19.341 21.0468C18.4902 24.2192 17.6287 27.4621 17.2047 30.7431C16.8887 33.1876 16.6402 36.1481 17.7718 38.4431C17.99 38.9253 18.3133 39.3519 18.7177 39.6914C19.1221 40.0308 19.5973 40.2744 20.108 40.4041C20.6842 40.5287 21.2827 40.5014 21.8453 40.3249C22.408 40.1483 22.9157 39.8285 23.3192 39.3965C23.747 38.8787 24.07 38.2817 24.2699 37.6392C24.54 36.8895 24.8532 36.1481 25.153 35.4039C25.7742 33.8611 26.4044 32.3221 27.0436 30.7866C28.2994 27.7663 29.5634 24.7461 30.984 21.7992C31.6889 20.3407 32.4262 18.8903 33.2418 17.4888C33.6496 16.7881 34.0926 16.1091 34.5463 15.4382C34.6732 15.2481 35.3565 13.9905 35.6266 14.0937C35.8967 14.197 35.3322 15.7696 35.2782 15.995L34.6759 18.3579C34.2627 19.9876 33.8657 21.59 33.4363 23.2034C32.6152 26.4002 31.7564 29.6051 31.0623 32.8644C30.7301 34.456 30.4114 36.0639 30.2278 37.6799C30.1302 38.4818 30.0878 39.2895 30.1008 40.0972C30.1143 40.7518 30.163 41.3792 30.5086 41.9495C30.8141 42.4435 31.2622 42.832 31.7931 43.063C32.324 43.2941 32.9123 43.3566 33.4795 43.2424C34.9001 42.949 35.4186 41.773 35.9507 40.5671C38.6326 34.4723 41.6061 28.5078 44.6391 22.5841C47.5262 16.9456 50.5375 11.3315 54.2538 6.19276C55.1202 4.9711 56.0677 3.80961 57.0896 2.71622C57.604 2.16532 58.1622 1.65754 58.7587 1.19795C59.0747 0.956224 59.4069 0.736224 59.7445 0.527088C59.9092 0.434743 60.1928 0.309805 60.0928 0.0653611Z" fill="#EF3842"/>
  </g>
  <defs>
    <clipPath id="header_main_logo_001">
      <rect width="105.6" height="44" fill="white"/>
    </clipPath>
  </defs>
</svg>